<svg width="101" height="101" viewBox="0 0 101 101" fill="none" xmlns="http://www.w3.org/2000/svg">
<path d="M99.5093 50.0047C99.5093 77.3453 77.3453 99.5093 50.0046 99.5093C22.664 99.5093 0.5 77.3453 0.5 50.0047C0.5 22.664 22.664 0.5 50.0046 0.5C77.3453 0.5 99.5093 22.664 99.5093 50.0047Z" stroke="#D7E5FF"/>
<path d="M79.149 46.4024V46.9024H79.649H91.5249V53.1069H79.649H79.149V53.6069V63.0675C79.149 65.3242 78.7252 67.419 77.8815 69.3576C77.0331 71.3072 75.8797 73.0093 74.4213 74.4677C72.9637 75.9253 71.2532 77.0784 69.2764 77.9269C67.3063 78.7726 65.2752 79.1955 63.021 79.1955C60.7644 79.1955 58.6696 78.7716 56.7309 77.9279C54.7814 77.0795 53.0793 75.9262 51.6208 74.4677C50.1624 73.0093 49.009 71.3072 48.1606 69.3576C47.3169 67.419 46.8931 65.3242 46.8931 63.0675V53.6069V53.1069H46.3931H27.5555H27.0555V53.6069V79.1862H20.8509V53.6069V53.1069H20.3509H8.4751V46.9024H20.3509H20.8509V46.4024V37.0253C20.8509 34.7689 21.2747 32.6638 22.1195 30.6958C22.968 28.7189 24.1211 27.0085 25.5787 25.5508C27.0371 24.0924 28.7392 22.9391 30.6888 22.0906C32.6267 21.2473 34.7771 20.8231 36.9789 20.8231C39.1781 20.8231 41.2647 21.2463 43.2339 22.0915C45.2029 22.9406 46.9332 24.0948 48.4195 25.5541C49.9034 27.011 51.0647 28.7203 51.9126 30.6958C52.7573 32.6638 53.1812 34.7689 53.1812 37.0253V46.4024V46.9024H53.6812H72.4445H72.9445V46.4024V20.8231H79.149V46.4024ZM27.0647 46.4024V46.9024H27.5647H46.4024H46.9024V46.4024V37.0253C46.9024 35.6419 46.6389 34.3469 46.1075 33.1464C45.5829 31.9612 44.8805 30.9156 43.9892 30.0243L43.9873 30.0224C43.0984 29.1433 42.0542 28.4314 40.8671 27.906C39.6653 27.3741 38.3144 27.1112 36.9882 27.1112C35.6578 27.1112 34.3817 27.3757 33.1835 27.906C31.9991 28.4302 30.9467 29.1312 30.0301 30.0186C29.1097 30.9097 28.3861 31.9568 27.8595 33.1464C27.3282 34.3469 27.0647 35.6419 27.0647 37.0253V46.4024ZM53.6904 53.1069H53.1904V53.6069V63.0675C53.1904 64.4505 53.4537 65.745 53.9846 66.945C54.51 68.1417 55.2131 69.1781 56.1036 70.0685C56.9949 70.9598 58.0405 71.6623 59.2257 72.1869C60.4224 72.7166 61.6426 72.9817 63.0303 72.9817C64.4138 72.9817 65.7088 72.7182 66.9092 72.1869C68.0928 71.663 69.1492 70.9606 70.0333 70.0666C70.9139 69.1762 71.6262 68.1212 72.1515 66.9052C72.6135 65.8358 72.8738 64.7202 72.9319 63.5675H72.9538V63.0675V53.6069V53.1069H72.4538H53.6904Z" fill="#2E2E32" stroke="#D7E5FF"/>
</svg>
