<svg width="41" height="40" viewBox="0 0 41 40" fill="none" xmlns="http://www.w3.org/2000/svg">
<circle cx="20.3633" cy="20" r="20" fill="#F2F2F4"/>
<path d="M11.3633 14.2002V25.8002C11.3633 26.9203 11.3633 27.4796 11.5813 27.9074C11.773 28.2837 12.0788 28.5905 12.4551 28.7822C12.8825 29 13.4423 29 14.5602 29H26.1664C27.2843 29 27.8433 29 28.2707 28.7822C28.647 28.5905 28.9538 28.2837 29.1455 27.9074C29.3633 27.48 29.3633 26.921 29.3633 25.8031V14.1969C29.3633 13.079 29.3633 12.5192 29.1455 12.0918C28.9538 11.7155 28.647 11.4097 28.2707 11.218C27.8429 11 27.2836 11 26.1635 11H14.5635C13.4434 11 12.8829 11 12.4551 11.218C12.0788 11.4097 11.773 11.7155 11.5813 12.0918C11.3633 12.5196 11.3633 13.0801 11.3633 14.2002Z" stroke="#606064" stroke-width="2" stroke-linecap="round" stroke-linejoin="round"/>
<path d="M17.3633 17C17.3633 18.6569 18.7064 20 20.3633 20C22.0201 20 23.3633 18.6569 23.3633 17C23.3633 15.3431 22.0201 14 20.3633 14C18.7064 14 17.3633 15.3431 17.3633 17Z" fill="#606064"/>
<path d="M20.3633 21C22.4339 21 24.2105 22.2586 24.9698 24.0525C25.4004 25.0697 24.4679 26 23.3633 26H17.3633C16.2587 26 15.3262 25.0697 15.7567 24.0525C16.5161 22.2586 18.2927 21 20.3633 21Z" fill="#606064"/>
</svg>
