<svg width="40" height="41" viewBox="0 0 40 41" fill="none" xmlns="http://www.w3.org/2000/svg">
<circle cx="20" cy="20.5" r="20" fill="#17171B" fill-opacity="0.05"/>
<path opacity="0.2" d="M14.4044 11.5874C12.9256 11.5874 11.5534 12.5518 10.5435 14.302C9.57752 15.9737 9.0459 18.188 9.0459 20.534C9.0459 22.88 9.57752 25.0943 10.5435 26.766C11.555 28.5161 12.9256 29.4806 14.4044 29.4806C15.8832 29.4806 17.2554 28.5161 18.2653 26.766C19.2314 25.0943 19.763 22.88 19.763 20.534C19.763 18.188 19.2314 15.9737 18.2653 14.302C17.2539 12.5518 15.8832 11.5874 14.4044 11.5874ZM17.4781 26.3112C16.636 27.7681 15.5445 28.571 14.4044 28.571C13.2644 28.571 12.1729 27.7681 11.3308 26.3112C11.0406 25.8094 10.7944 25.2527 10.5937 24.6536C11.0548 25.1994 11.613 25.5193 12.2152 25.5193C13.1844 25.5193 14.0422 24.6881 14.5644 23.4163C14.809 22.8204 14.6585 22.1335 14.2037 21.6788C13.5717 21.0468 13.5717 20.0227 14.2037 19.3908C14.6601 18.9344 14.809 18.2491 14.5644 17.6532C14.0422 16.3798 13.1859 15.5502 12.2152 15.5502C11.6146 15.5502 11.0563 15.8702 10.5937 16.4159C10.796 15.8168 11.0422 15.2601 11.3308 14.7583C12.1729 13.3014 13.2644 12.4985 14.4044 12.4985C15.5445 12.4985 16.636 13.3014 17.4781 14.7583C18.3657 16.2936 18.8534 18.3463 18.8534 20.5355C18.8534 22.7248 18.3657 24.7775 17.4781 26.3128V26.3112Z" fill="#17171B" stroke="#17171B" stroke-width="0.5"/>
<path opacity="0.2" d="M29.9293 14.302C28.9178 12.5518 27.5472 11.5874 26.0684 11.5874C24.5896 11.5874 23.2174 12.5518 22.2075 14.302C21.2415 15.9737 20.7098 18.188 20.7098 20.534C20.7098 22.88 21.2415 25.0943 22.2075 26.766C23.219 28.5161 24.5896 29.4806 26.0684 29.4806C27.5472 29.4806 28.9194 28.5161 29.9293 26.766C30.8953 25.0943 31.4269 22.88 31.4269 20.534C31.4269 18.188 30.8953 15.9737 29.9293 14.302ZM29.142 26.3112C28.2999 27.7681 27.2085 28.571 26.0684 28.571C24.9283 28.571 23.8368 27.7681 22.9947 26.3112C22.7046 25.8094 22.4584 25.2527 22.2577 24.6536C22.7187 25.1994 23.277 25.5193 23.8792 25.5193C24.8483 25.5193 25.7061 24.6881 26.2283 23.4163C26.473 22.8204 26.3224 22.1335 25.8676 21.6788C25.2357 21.0468 25.2357 20.0227 25.8676 19.3908C26.324 18.9344 26.473 18.2491 26.2283 17.6532C25.7061 16.3798 24.8499 15.5502 23.8792 15.5502C23.2785 15.5502 22.7203 15.8702 22.2577 16.4159C22.4599 15.8168 22.7062 15.2601 22.9947 14.7583C23.8368 13.3014 24.9283 12.4985 26.0684 12.4985C27.2085 12.4985 28.2999 13.3014 29.142 14.7583C30.0297 16.2936 30.5174 18.3463 30.5174 20.5355C30.5174 22.7248 30.0297 24.7775 29.142 26.3128V26.3112Z" fill="#17171B" stroke="#17171B" stroke-width="0.5"/>
</svg>
