<svg width="43" height="16" viewBox="0 0 43 16" fill="none" xmlns="http://www.w3.org/2000/svg">
<g clip-path="url(#clip0_399_1050)">
<path d="M11.544 11.613C11.1296 12.8151 10.5475 13.7418 9.79785 14.3908C9.04817 15.0398 8.07889 15.5007 6.88766 15.7749C6.16513 15.9389 5.45913 16.0072 4.76965 15.9797C4.08018 15.9521 3.40133 15.8563 2.73311 15.6923C2.09086 15.5283 1.55605 15.2517 1.12749 14.8625C0.698926 14.4734 0.397872 13.9574 0.224323 13.3156C0.0909146 12.7696 0.0165365 12.1949 0.0035498 11.5938C-0.00943686 10.9928 0.0129946 10.3917 0.0743861 9.79063C0.134597 9.18957 0.21842 8.58491 0.324674 7.97667C0.432109 7.36842 0.525377 6.77813 0.605658 6.20341C0.698926 5.6706 0.82289 5.14497 0.977549 4.62532C1.13103 4.10568 1.32937 3.61836 1.57021 3.15978C1.81106 2.7024 2.10503 2.27854 2.45331 1.88941C2.80158 1.50028 3.22896 1.16861 3.7378 0.895621C4.1522 0.677706 4.6575 0.506487 5.25252 0.383162C5.84755 0.259836 6.46972 0.182009 7.11906 0.147287C7.76839 0.113761 8.41064 0.12334 9.0458 0.178417C9.68097 0.233495 10.2536 0.322098 10.7624 0.445423C12.2075 0.828571 12.943 1.79841 12.9701 3.35615C12.9571 3.95721 12.9135 4.61694 12.8403 5.33415C12.7671 6.05135 12.6667 6.78292 12.5392 7.52766C12.4117 8.27241 12.2653 8.9968 12.0977 9.70083C11.93 10.4049 11.7458 11.043 11.5451 11.6178L11.544 11.613ZM7.98208 3.34298C7.78846 3.25437 7.56415 3.21726 7.31032 3.23043C7.05648 3.24479 6.80147 3.30945 6.54764 3.42559C6.29381 3.54173 6.09901 3.68901 5.96561 3.86621C5.89831 3.97517 5.83574 4.08892 5.77435 4.20386C5.71414 4.32 5.67045 4.43255 5.64448 4.54271C5.48392 5.23956 5.31037 6.00106 5.12265 6.82842C4.93494 7.65578 4.785 8.45081 4.67166 9.21591C4.55832 9.98101 4.50047 10.6647 4.50047 11.2657C4.50047 11.8668 4.60083 12.2907 4.80153 12.5361C4.88181 12.7002 5.02939 12.8055 5.24308 12.8534C5.45677 12.9013 5.68108 12.8977 5.91484 12.8426C6.1486 12.7888 6.37291 12.699 6.58778 12.5756C6.80147 12.4523 6.95613 12.3026 7.0494 12.1242C7.33039 11.5783 7.51456 10.9999 7.60192 10.3929C7.68929 9.78464 7.792 9.20034 7.91242 8.63999C7.95256 8.29875 8.01986 7.87489 8.11313 7.36962C8.20639 6.86434 8.28668 6.36505 8.35397 5.87295C8.42126 5.38084 8.45786 4.94022 8.46495 4.55109C8.46495 4.55109 8.42481 3.5549 7.98326 3.34178L7.98208 3.34298Z" fill="black"/>
<path d="M27.9579 11.5723C28.011 11.9255 28.1314 12.2583 28.3191 12.5708C28.6403 13.0737 28.7005 13.573 28.4998 14.0687C28.2991 14.5644 27.8776 14.9344 27.2353 15.1798C26.553 15.4373 25.8706 15.5773 25.1882 15.5977C24.5058 15.6181 23.8565 15.5534 23.2414 15.4037C22.7998 15.2948 22.4881 15.0948 22.3087 14.8027C22.1281 14.5105 22.1446 14.1274 22.3583 13.6508C22.4114 13.5287 22.4917 13.403 22.5991 13.2737C22.7065 13.1444 22.827 13.0127 22.9604 12.8762C23.0938 12.7409 23.2284 12.6187 23.3618 12.5098C23.4952 12.4008 23.6156 12.3062 23.723 12.2248C23.8163 11.8584 23.8907 11.5315 23.9438 11.2466C23.9969 10.9616 24.0477 10.6347 24.0938 10.2684C24.141 9.90197 24.1941 9.45656 24.2543 8.93333C24.3145 8.41009 24.4113 7.74078 24.5459 6.92659C24.1847 7.59231 23.847 8.17661 23.533 8.67949C23.2189 9.18237 22.9013 9.67448 22.579 10.157C22.2579 10.6395 21.9297 11.1388 21.5956 11.6549C21.2615 12.1709 20.8931 12.7756 20.4917 13.4688C20.2639 13.7945 20.0266 13.9573 19.7798 13.9573C19.5331 13.9573 19.3418 13.7873 19.2072 13.4485C19.0998 12.8917 18.9699 12.3613 18.8165 11.8596C18.663 11.3567 18.4953 10.8539 18.3147 10.3522C18.1341 9.84929 17.9499 9.32965 17.7634 8.79324C17.5756 8.25683 17.395 7.68211 17.2215 7.07147C17.114 7.49293 17.0137 7.9551 16.9204 8.45679C16.8271 8.95967 16.7327 9.45537 16.6394 9.94388C16.5462 10.4324 16.4588 10.8982 16.3785 11.34C16.2982 11.7818 16.225 12.1446 16.1577 12.4295C16.4517 12.5924 16.676 12.8103 16.8295 13.0821C16.983 13.3539 17.0467 13.6353 17.0208 13.9274C16.9936 14.2196 16.8767 14.5009 16.6689 14.7727C16.4611 15.0445 16.1577 15.2553 15.7563 15.4049C15.2876 15.5809 14.8225 15.6624 14.3608 15.6492C13.8992 15.636 13.4412 15.5881 12.9866 15.5067C12.5581 15.5067 12.2369 15.4085 12.0233 15.211C11.8096 15.0146 11.6891 14.7727 11.662 14.4878C11.6348 14.2028 11.7021 13.9071 11.8627 13.6017C12.0233 13.2964 12.2641 13.0342 12.5852 12.8175C12.8662 12.6271 13.0268 12.3697 13.0669 12.0428C13.1602 11.431 13.2641 10.7868 13.3786 10.1067C13.4919 9.42783 13.6123 8.73457 13.7399 8.02814C13.8674 7.32171 13.9878 6.62965 14.1011 5.94957C14.2145 5.27068 14.3183 4.62531 14.4128 4.01347C14.44 3.86381 14.4222 3.73809 14.362 3.63631C14.3018 3.53454 14.2322 3.43636 14.1519 3.34057C14.0043 3.16456 13.8744 2.97778 13.7611 2.78022C13.6478 2.58385 13.584 2.35636 13.5698 2.09774C13.5026 1.6631 13.6135 1.28594 13.9016 0.966254C14.1897 0.647763 14.6206 0.453794 15.1955 0.385546C15.8909 0.304127 18.2462 0.44661 18.8885 0.48732C19.5036 0.514859 19.8849 0.820179 20.0325 1.40448C20.1399 1.82594 20.2426 2.27015 20.343 2.73951C20.4433 3.20767 20.5401 3.6866 20.6334 4.17631C20.7267 4.66482 20.8176 5.15094 20.9049 5.63347C20.9923 6.116 21.069 6.58056 21.1352 7.02956C21.2827 6.66318 21.4728 6.24531 21.7078 5.77595C21.9415 5.30779 22.1824 4.83245 22.4303 4.34993C22.6782 3.8674 22.912 3.41241 23.1327 2.98496C23.3535 2.55751 23.5377 2.20789 23.6853 1.9361C24.1138 1.06683 24.8021 0.571133 25.7525 0.449005C26.0606 0.408296 26.3511 0.380757 26.6262 0.367586C26.9001 0.354415 27.1681 0.350823 27.429 0.35681C27.6899 0.363994 27.9508 0.380757 28.2117 0.408296C28.4726 0.435834 28.7571 0.462176 29.0653 0.489714C29.3333 0.530424 29.5706 0.602264 29.7772 0.704038C29.985 0.805811 30.1455 0.938715 30.2589 1.10155C30.3722 1.26439 30.4265 1.45118 30.4194 1.66191C30.4124 1.87264 30.3297 2.10732 30.1692 2.36474C29.9684 2.67725 29.7347 2.94904 29.4667 3.18013C29.3191 3.28909 29.2188 3.40164 29.1656 3.51658C29.1125 3.63152 29.0724 3.76443 29.0452 3.9141L27.9614 11.5758L27.9579 11.5723Z" fill="black"/>
<path d="M37.3742 10.1007C37.1605 10.1151 36.9398 10.1079 36.7119 10.0803C36.4841 10.0528 36.2775 10.0049 36.0897 9.93666C35.902 9.86841 35.7485 9.76544 35.6281 9.62895C35.5077 9.49245 35.4475 9.31405 35.4475 9.09613C35.4876 8.54895 35.6812 8.11551 36.0295 7.79343C36.3778 7.47255 36.7851 7.26301 37.2538 7.16722C37.8429 7.07144 38.4273 7.01037 39.0106 6.98284C39.5926 6.9553 40.1309 7.03073 40.6268 7.20793C40.9881 7.31809 41.2454 7.48452 41.3989 7.71082C41.5524 7.93591 41.6398 8.20053 41.6598 8.50106C41.6799 8.80159 41.6563 9.12008 41.589 9.45533C41.5217 9.79059 41.4556 10.1222 41.3883 10.4503C41.3352 10.7245 41.275 10.9736 41.2077 11.1987C41.1404 11.4238 41.0837 11.6393 41.0377 11.8452C40.9904 12.05 40.9538 12.2487 40.9267 12.4403C40.8995 12.6319 40.8936 12.8306 40.9066 13.0354C40.9196 13.1036 40.9397 13.1719 40.9668 13.2401C40.994 13.3084 41.0306 13.3527 41.0778 13.373C41.125 13.3934 41.1746 13.3802 41.2289 13.3323C41.282 13.2844 41.3493 13.185 41.4296 13.0354C41.5772 12.6247 41.7177 12.4367 41.8511 12.4714C41.9845 12.5061 42.0246 12.7145 41.9715 13.0976C41.8912 13.7813 41.661 14.3488 41.2797 14.8002C40.8983 15.2516 40.4497 15.5594 39.935 15.7234C39.4202 15.8874 38.8748 15.891 38.2998 15.7342C37.7249 15.5773 37.2089 15.2241 36.7544 14.6781C36.4203 15.1427 35.9481 15.4815 35.3401 15.6935C34.7309 15.9054 34.0957 16.0084 33.4334 16.0012C32.7711 15.994 32.1418 15.885 31.5468 15.6731C30.9517 15.4612 30.4937 15.1499 30.1714 14.7392C29.8101 14.2195 29.5527 13.6388 29.3992 12.9959C29.2458 12.3529 29.1678 11.6824 29.1678 10.9855C29.1678 10.2887 29.2316 9.58704 29.3591 8.88301C29.4866 8.17897 29.6495 7.50128 29.8514 6.85233C30.0521 6.20337 30.2859 5.59752 30.5539 5.03716C30.8219 4.47681 31.0958 3.99788 31.3768 3.60156C31.8183 2.90351 32.3201 2.31921 32.882 1.84746C33.444 1.37571 34.0331 1.00334 34.6482 0.72915C35.2633 0.456157 35.889 0.260992 36.5254 0.14485C37.1605 0.0287084 37.7733 -0.015593 38.3624 0.0119457C38.9515 0.0394844 39.4934 0.118509 39.9881 0.247821C40.4828 0.37833 40.9042 0.54476 41.2525 0.750702C41.7873 1.07877 42.2029 1.50263 42.4969 2.02227C42.7908 2.54192 42.9384 3.06874 42.9384 3.60156C42.9384 4.13437 42.7708 4.62768 42.4367 5.07907C42.1026 5.53047 41.5807 5.85854 40.8712 6.06328C40.2289 6.19978 39.6835 6.24168 39.236 6.18661C38.7874 6.13273 38.3364 5.98905 37.8807 5.75557C37.7473 5.68732 37.7131 5.59871 37.7804 5.48856C37.8477 5.3796 37.9575 5.25628 38.1121 5.11978C38.2656 4.98328 38.4262 4.83601 38.5938 4.67916C38.7614 4.52231 38.8783 4.35468 38.9456 4.17628C39.0259 3.8075 38.9291 3.48542 38.6552 3.21242C38.3813 2.93943 38.033 2.7718 37.6115 2.70954C37.1901 2.64848 36.7556 2.72631 36.307 2.94542C35.8583 3.16453 35.5077 3.5812 35.2539 4.19663C35.0532 4.67557 34.8489 5.25628 34.6411 5.93996C34.4333 6.62363 34.2504 7.32767 34.0898 8.05325C33.9292 8.77884 33.8088 9.48646 33.7285 10.1761C33.6482 10.867 33.6353 11.4513 33.6884 11.9302C33.7155 12.4499 33.8761 12.8163 34.1701 13.0282C34.464 13.2401 34.7958 13.3359 35.1641 13.3155C35.5325 13.2952 35.8831 13.1826 36.2184 12.9767C36.5525 12.772 36.7804 12.5181 36.9008 12.2176C37.0082 11.9302 37.1051 11.5854 37.1912 11.1819C37.2786 10.7784 37.3412 10.4192 37.3825 10.1043L37.3742 10.1007Z" fill="black"/>
</g>
<defs>
<clipPath id="clip0_399_1050">
<rect width="43" height="16" fill="white"/>
</clipPath>
</defs>
</svg>
