<svg width="80" height="80" viewBox="0 0 80 80" fill="none" xmlns="http://www.w3.org/2000/svg">
<g clip-path="url(#clip0_1704_17949)">
<path d="M50.6909 0.105469L45.147 20.7888" stroke="#005CFF" stroke-miterlimit="10"/>
<path d="M32.081 10.4473L34.853 20.7879" stroke="#005CFF" stroke-miterlimit="10"/>
<path d="M10.7943 10.7949L25.9378 25.9384" stroke="#005CFF" stroke-miterlimit="10"/>
<path d="M11.8329 32.4531L20.7887 34.8525" stroke="#005CFF" stroke-miterlimit="10"/>
<path d="M0.105347 50.6904L20.7887 45.1465" stroke="#005CFF" stroke-miterlimit="10"/>
<path d="M17.3546 62.6456L25.9378 54.0645" stroke="#005CFF" stroke-miterlimit="10"/>
<path d="M29.311 79.8963L34.8529 59.2109" stroke="#005CFF" stroke-miterlimit="10"/>
<path d="M48.2126 70.645L45.147 59.2109" stroke="#005CFF" stroke-miterlimit="10"/>
<path d="M69.2058 69.2059L54.0643 54.0645" stroke="#005CFF" stroke-miterlimit="10"/>
<path d="M72.3949 48.6798L59.2114 45.1465" stroke="#005CFF" stroke-miterlimit="10"/>
<path d="M79.8968 29.3105L59.2114 34.8524" stroke="#005CFF" stroke-miterlimit="10"/>
<path d="M61.635 18.3652L54.0643 25.938" stroke="#005CFF" stroke-miterlimit="10"/>
<path d="M46.694 45.1857C47.3221 42.7782 47.5105 40.7894 47.5105 38.6122C47.5105 34.8859 45.6682 33.4414 41.1673 33.4414H32.8144V37.9633H40.7695C41.8581 37.9633 42.1931 38.1726 42.1931 39.1565C42.1931 40.7476 42.0047 42.5479 41.565 44.7461L46.694 45.1857Z" fill="#005CFF"/>
</g>
<defs>
<clipPath id="clip0_1704_17949">
<rect width="80" height="80" fill="white"/>
</clipPath>
</defs>
</svg>
