<svg width="44" height="45" viewBox="0 0 44 45" fill="none" xmlns="http://www.w3.org/2000/svg">
<circle cx="22" cy="22.5" r="22" fill="#C1D8FF"/>
<path d="M15.8446 12.6963C14.2179 12.6963 12.7085 13.7572 11.5976 15.6823C10.535 17.5212 9.9502 19.9569 9.9502 22.5375C9.9502 25.1182 10.535 27.5539 11.5976 29.3927C12.7102 31.3179 14.2179 32.3788 15.8446 32.3788C17.4713 32.3788 18.9807 31.3179 20.0916 29.3927C21.1542 27.5539 21.739 25.1182 21.739 22.5375C21.739 19.9569 21.1542 17.5212 20.0916 15.6823C18.9789 13.7572 17.4713 12.6963 15.8446 12.6963ZM19.2256 28.8925C18.2993 30.495 17.0987 31.3782 15.8446 31.3782C14.5905 31.3782 13.3899 30.495 12.4635 28.8925C12.1444 28.3405 11.8736 27.7281 11.6528 27.0691C12.1599 27.6695 12.7741 28.0214 13.4365 28.0214C14.5025 28.0214 15.4461 27.1071 16.0205 25.7081C16.2896 25.0526 16.124 24.297 15.6238 23.7968C14.9286 23.1016 14.9286 21.9752 15.6238 21.28C16.1258 20.778 16.2896 20.0242 16.0205 19.3687C15.4461 17.9679 14.5042 17.0554 13.4365 17.0554C12.7758 17.0554 12.1617 17.4073 11.6528 18.0076C11.8753 17.3487 12.1461 16.7363 12.4635 16.1843C13.3899 14.5817 14.5905 13.6985 15.8446 13.6985C17.0987 13.6985 18.2993 14.5817 19.2256 16.1843C20.202 17.8731 20.7385 20.1311 20.7385 22.5392C20.7385 24.9474 20.202 27.2054 19.2256 28.8942V28.8925Z" fill="#78A9FF"/>
<path d="M32.9222 15.6823C31.8095 13.7572 30.3018 12.6963 28.6752 12.6963C27.0485 12.6963 25.5391 13.7572 24.4282 15.6823C23.3655 17.5212 22.7808 19.9569 22.7808 22.5375C22.7808 25.1182 23.3655 27.5539 24.4282 29.3927C25.5408 31.3179 27.0485 32.3788 28.6752 32.3788C30.3018 32.3788 31.8112 31.3179 32.9222 29.3927C33.9848 27.5539 34.5695 25.1182 34.5695 22.5375C34.5695 19.9569 33.9848 17.5212 32.9222 15.6823ZM32.0562 28.8925C31.1299 30.495 29.9292 31.3782 28.6752 31.3782C27.4211 31.3782 26.2205 30.495 25.2941 28.8925C24.975 28.3405 24.7042 27.7281 24.4834 27.0691C24.9905 27.6695 25.6046 28.0214 26.267 28.0214C27.3331 28.0214 28.2767 27.1071 28.8511 25.7081C29.1202 25.0526 28.9546 24.297 28.4544 23.7968C27.7592 23.1016 27.7592 21.9752 28.4544 21.28C28.9563 20.778 29.1202 20.0242 28.8511 19.3687C28.2767 17.9679 27.3348 17.0554 26.267 17.0554C25.6063 17.0554 24.9922 17.4073 24.4834 18.0076C24.7059 17.3487 24.9767 16.7363 25.2941 16.1843C26.2205 14.5817 27.4211 13.6985 28.6752 13.6985C29.9292 13.6985 31.1299 14.5817 32.0562 16.1843C33.0326 17.8731 33.569 20.1311 33.569 22.5392C33.569 24.9474 33.0326 27.2054 32.0562 28.8942V28.8925Z" fill="#78A9FF"/>
</svg>
