<svg width="40" height="40" viewBox="0 0 40 40" fill="none" xmlns="http://www.w3.org/2000/svg">
<circle cx="20" cy="20" r="20" fill="#F2F2F4"/>
<path d="M14.4044 11.0875C12.9256 11.0875 11.5534 12.052 10.5435 13.8021C9.57752 15.4738 9.0459 17.6881 9.0459 20.0341C9.0459 22.3801 9.57752 24.5944 10.5435 26.2661C11.555 28.0162 12.9256 28.9807 14.4044 28.9807C15.8832 28.9807 17.2554 28.0162 18.2653 26.2661C19.2314 24.5944 19.763 22.3801 19.763 20.0341C19.763 17.6881 19.2314 15.4738 18.2653 13.8021C17.2539 12.052 15.8832 11.0875 14.4044 11.0875ZM17.4781 25.8113C16.636 27.2682 15.5445 28.0711 14.4044 28.0711C13.2644 28.0711 12.1729 27.2682 11.3308 25.8113C11.0406 25.3095 10.7944 24.7528 10.5937 24.1538C11.0548 24.6995 11.613 25.0194 12.2152 25.0194C13.1844 25.0194 14.0422 24.1883 14.5644 22.9165C14.809 22.3205 14.6585 21.6337 14.2037 21.1789C13.5717 20.5469 13.5717 19.5229 14.2037 18.8909C14.6601 18.4345 14.809 17.7492 14.5644 17.1533C14.0422 15.8799 13.1859 15.0504 12.2152 15.0504C11.6146 15.0504 11.0563 15.3703 10.5937 15.916C10.796 15.317 11.0422 14.7602 11.3308 14.2584C12.1729 12.8016 13.2644 11.9986 14.4044 11.9986C15.5445 11.9986 16.636 12.8016 17.4781 14.2584C18.3657 15.7937 18.8534 17.8465 18.8534 20.0357C18.8534 22.2249 18.3657 24.2776 17.4781 25.8129V25.8113Z" fill="#D5D5DA" stroke="#D5D5DA" stroke-width="0.5"/>
<path d="M29.9293 13.802C28.9178 12.0519 27.5472 11.0875 26.0684 11.0875C24.5896 11.0875 23.2174 12.0519 22.2075 13.802C21.2415 15.4737 20.7098 17.688 20.7098 20.0341C20.7098 22.3801 21.2415 24.5944 22.2075 26.2661C23.219 28.0162 24.5896 28.9806 26.0684 28.9806C27.5472 28.9806 28.9194 28.0162 29.9293 26.2661C30.8953 24.5944 31.4269 22.3801 31.4269 20.0341C31.4269 17.688 30.8953 15.4737 29.9293 13.802ZM29.142 25.8113C28.2999 27.2682 27.2085 28.0711 26.0684 28.0711C24.9283 28.0711 23.8368 27.2682 22.9947 25.8113C22.7046 25.3095 22.4584 24.7528 22.2577 24.1537C22.7187 24.6995 23.277 25.0194 23.8792 25.0194C24.8483 25.0194 25.7061 24.1882 26.2283 22.9164C26.473 22.3205 26.3224 21.6336 25.8676 21.1789C25.2357 20.5469 25.2357 19.5228 25.8676 18.8909C26.324 18.4345 26.473 17.7492 26.2283 17.1533C25.7061 15.8799 24.8499 15.0503 23.8792 15.0503C23.2785 15.0503 22.7203 15.3702 22.2577 15.916C22.4599 15.3169 22.7062 14.7602 22.9947 14.2584C23.8368 12.8015 24.9283 11.9986 26.0684 11.9986C27.2085 11.9986 28.2999 12.8015 29.142 14.2584C30.0297 15.7937 30.5174 17.8464 30.5174 20.0356C30.5174 22.2248 30.0297 24.2776 29.142 25.8129V25.8113Z" fill="#D5D5DA" stroke="#D5D5DA" stroke-width="0.5"/>
</svg>
