<svg width="40" height="40" viewBox="0 0 40 40" fill="none" xmlns="http://www.w3.org/2000/svg">
<circle cx="20" cy="20" r="20" fill="#D7E5FF"/>
<path d="M11 14.2002V25.8002C11 26.9203 11 27.4796 11.218 27.9074C11.4097 28.2837 11.7155 28.5905 12.0918 28.7822C12.5192 29 13.079 29 14.1969 29H25.8031C26.921 29 27.48 29 27.9074 28.7822C28.2837 28.5905 28.5905 28.2837 28.7822 27.9074C29 27.48 29 26.921 29 25.8031V14.1969C29 13.079 29 12.5192 28.7822 12.0918C28.5905 11.7155 28.2837 11.4097 27.9074 11.218C27.4796 11 26.9203 11 25.8002 11H14.2002C13.0801 11 12.5196 11 12.0918 11.218C11.7155 11.4097 11.4097 11.7155 11.218 12.0918C11 12.5196 11 13.0801 11 14.2002Z" stroke="#78A9FF" stroke-width="2" stroke-linecap="round" stroke-linejoin="round"/>
<path d="M17 17C17 18.6569 18.3431 20 20 20C21.6569 20 23 18.6569 23 17C23 15.3431 21.6569 14 20 14C18.3431 14 17 15.3431 17 17Z" fill="#78A9FF"/>
<path d="M20 21C22.0706 21 23.8472 22.2586 24.6065 24.0525C25.0371 25.0697 24.1046 26 23 26H17C15.8954 26 14.9629 25.0697 15.3935 24.0525C16.1528 22.2586 17.9294 21 20 21Z" fill="#78A9FF"/>
</svg>
