<svg width="48" height="48" viewBox="0 0 48 48" fill="none" xmlns="http://www.w3.org/2000/svg">
<g clip-path="url(#clip0_129_4369)">
<path d="M36.507 43.1914C42.8544 43.1914 47.9999 34.602 47.9999 24.0065C47.9999 13.4109 42.8544 4.82153 36.507 4.82153C30.1597 4.82153 25.0142 13.4109 25.0142 24.0065C25.0142 34.602 30.1597 43.1914 36.507 43.1914Z" fill="white"/>
<path d="M11.4929 43.1914C17.8402 43.1914 22.9857 34.602 22.9857 24.0065C22.9857 13.4109 17.8402 4.82153 11.4929 4.82153C5.14553 4.82153 0 13.4109 0 24.0065C0 34.602 5.14553 43.1914 11.4929 43.1914Z" fill="white"/>
<path d="M11.4929 4.81079C8.32086 4.81079 5.37927 6.87809 3.21077 10.6337C1.14132 14.2191 0 18.9675 0 24C0 29.0326 1.14132 33.7809 3.21077 37.3664C5.37927 41.122 8.32086 43.1893 11.4929 43.1893C14.6649 43.1893 17.6065 41.122 19.775 37.3664C21.8466 33.7809 22.9857 29.0326 22.9857 24C22.9857 18.9675 21.8444 14.2191 19.775 10.6337C17.6065 6.87809 14.6649 4.81079 11.4929 4.81079ZM18.0845 36.393C16.2799 39.5198 13.9392 41.2404 11.4929 41.2404C9.04657 41.2404 6.70579 39.5198 4.90121 36.393C4.27887 35.3163 3.75128 34.1212 3.31844 32.8377C4.30902 34.0092 5.50633 34.694 6.79623 34.694C8.87645 34.694 10.7155 32.9131 11.8331 30.1825C12.3564 28.9034 12.0355 27.4304 11.0579 26.4549C9.70336 25.1004 9.70336 22.9018 11.0579 21.5473C12.0355 20.5696 12.3564 19.0988 11.8331 17.8197C10.7155 15.0891 8.87645 13.3082 6.79623 13.3082C5.50633 13.3082 4.30902 13.993 3.31844 15.1645C3.75128 13.881 4.27887 12.6859 4.90121 11.6092C6.70579 8.48239 9.04657 6.7618 11.4929 6.7618C13.9392 6.7618 16.2799 8.48239 18.0845 11.6092C19.986 14.9039 21.0347 19.3034 21.0347 24C21.0347 28.6967 19.9882 33.0983 18.0845 36.3909V36.393Z" fill="black"/>
<path d="M44.7891 10.6337C42.6206 6.87809 39.679 4.81079 36.507 4.81079C33.335 4.81079 30.3934 6.87809 28.2249 10.6337C26.1533 14.2191 25.0142 18.9675 25.0142 24C25.0142 29.0326 26.1555 33.7809 28.2249 37.3664C30.3934 41.122 33.335 43.1893 36.507 43.1893C39.679 43.1893 42.6206 41.122 44.7891 37.3664C46.8607 33.7809 47.9999 29.0326 47.9999 24C47.9999 18.9675 46.8586 14.2191 44.7891 10.6337ZM43.0987 36.393C41.2941 39.5198 38.9533 41.2404 36.507 41.2404C34.0607 41.2404 31.7199 39.5198 29.9154 36.393C29.293 35.3163 28.7654 34.1212 28.3326 32.8377C29.3232 34.0092 30.5205 34.694 31.8104 34.694C33.8906 34.694 35.7296 32.9131 36.8473 30.1825C37.3706 28.9034 37.0497 27.4304 36.072 26.4549C34.7175 25.1004 34.7175 22.9018 36.072 21.5473C37.0497 20.5696 37.3706 19.0988 36.8473 17.8197C35.7296 15.0891 33.8906 13.3082 31.8104 13.3082C30.5205 13.3082 29.3232 13.993 28.3326 15.1645C28.7654 13.881 29.293 12.6859 29.9154 11.6092C31.7199 8.48239 34.0607 6.7618 36.507 6.7618C38.9533 6.7618 41.2941 8.48239 43.0987 11.6092C45.0002 14.9039 46.0489 19.3034 46.0489 24C46.0489 28.6967 45.0023 33.0983 43.0987 36.3909V36.393Z" fill="black"/>
</g>
<defs>
<clipPath id="clip0_129_4369">
<rect width="48" height="48" fill="white"/>
</clipPath>
</defs>
</svg>
