<svg width="17" height="27" viewBox="0 0 17 27" fill="none" xmlns="http://www.w3.org/2000/svg">
<path d="M2.22375 22.296C2.22375 24.44 3.53575 26.2 6.76775 26.2C10.0638 26.2 11.4078 24.44 11.4078 22.296C11.4078 20.184 10.0638 18.424 6.76775 18.424C3.53575 18.424 2.22375 20.184 2.22375 22.296ZM0.94375 1.65603C0.94375 1.65603 3.59975 0.632029 7.43975 0.632029C12.1758 0.632029 15.5678 2.87203 15.9838 6.52003C16.5918 11.768 12.0798 13.656 10.8958 15.864C10.5118 16.568 10.5758 17.176 10.5758 17.176C10.5758 17.176 6.76775 16.76 2.92775 17.176C2.92775 16.504 3.02375 15.896 3.24775 15.192C4.20775 12.184 8.30375 11.352 8.30375 8.69603C8.30375 7.44803 7.15175 7.03203 5.74375 7.03203C3.82375 7.03203 1.90375 7.70403 1.90375 7.70403L0.94375 1.65603Z" fill="#D7E5FF"/>
</svg>
