<svg width="24" height="24" viewBox="0 0 24 24" fill="none" xmlns="http://www.w3.org/2000/svg">
<path d="M10.4783 1.87933C10.6311 0.841403 11.6423 0.117399 12.737 0.262219L21.9867 1.48591C23.0814 1.63073 23.845 2.58953 23.6922 3.62745L21.2032 20.5414C21.0505 21.5793 20.0393 22.3033 18.9446 22.1585L9.69484 20.9348C8.60017 20.79 7.83658 19.8312 7.98932 18.7933L10.4783 1.87933Z" fill="black"/>
<path fill-rule="evenodd" clip-rule="evenodd" d="M9.10124 2.08533L2.29433 3.60316C0.677187 3.96376 -0.310412 5.55973 0.0884605 7.16785L3.68374 21.6628C4.08261 23.271 5.71691 24.2823 7.33405 23.9217L13.0249 22.6527L9.5108 22.1878C7.68634 21.9465 6.41369 20.3484 6.66825 18.6186L9.10124 2.08533Z" fill="black"/>
</svg>
