<svg width="21" height="20" viewBox="0 0 21 20" fill="none" xmlns="http://www.w3.org/2000/svg">
<path fill-rule="evenodd" clip-rule="evenodd" d="M9.66667 10C9.66667 14.4148 7.61464 17.9937 5.08333 17.9937C2.55203 17.9937 0.5 14.4148 0.5 10C0.5 5.58519 2.55203 2.00628 5.08333 2.00628C7.61464 2.00628 9.66667 5.58519 9.66667 10ZM5.99194 12.5734C6.20062 12.0404 6.07267 11.4276 5.68278 11.0202C5.1426 10.4549 5.1426 9.53971 5.68278 8.97533C6.07267 8.56797 6.20062 7.95425 5.99194 7.42127C5.82877 7.00494 5.62696 6.64245 5.39508 6.34904C4.98287 5.85914 4.4822 5.56394 3.94116 5.5442C3.92141 5.5424 3.90166 5.5424 3.88105 5.5424C3.45595 5.5424 3.0549 5.71198 2.70022 6.01257C2.00203 6.60297 1.48074 7.70122 1.30555 9.02109V9.02468C1.26347 9.33783 1.242 9.66263 1.242 9.99731C1.242 10.332 1.26347 10.6577 1.30555 10.9708V10.9726C1.47989 12.2934 2.00203 13.3926 2.70022 13.983C3.0549 14.2835 3.45595 14.4531 3.88105 14.4531C3.90166 14.4531 3.92141 14.4531 3.94116 14.4513C4.4822 14.4316 4.98287 14.1364 5.39508 13.6465C5.62696 13.3531 5.82877 12.9897 5.99194 12.5734Z" fill="white"/>
<path fill-rule="evenodd" clip-rule="evenodd" d="M20.5 10C20.5 14.4148 18.448 17.9937 15.9167 17.9937C13.3854 17.9937 11.3334 14.4148 11.3334 10C11.3334 5.58519 13.3854 2.00628 15.9167 2.00628C18.448 2.00628 20.5 5.58519 20.5 10ZM16.8253 12.5734C17.034 12.0404 16.906 11.4276 16.5161 11.0202C15.976 10.4549 15.976 9.53971 16.5161 8.97533C16.906 8.56797 17.034 7.95425 16.8253 7.42127C16.6621 7.00494 16.4603 6.64245 16.2284 6.34904C15.8162 5.85914 15.3156 5.56394 14.7745 5.5442C14.7548 5.5424 14.735 5.5424 14.7144 5.5424C14.2893 5.5424 13.8883 5.71198 13.5336 6.01257C12.8354 6.60297 12.3141 7.70122 12.1389 9.02109V9.02468C12.0968 9.33783 12.0754 9.66263 12.0754 9.99731C12.0754 10.332 12.0968 10.6577 12.1389 10.9708V10.9726C12.3133 12.2934 12.8354 13.3926 13.5336 13.983C13.8883 14.2835 14.2893 14.4531 14.7144 14.4531C14.735 14.4531 14.7548 14.4531 14.7745 14.4513C15.3156 14.4316 15.8162 14.1364 16.2284 13.6465C16.4603 13.3531 16.6621 12.9897 16.8253 12.5734Z" fill="white"/>
</svg>
