<svg width="20" height="20" viewBox="0 0 20 20" fill="none" xmlns="http://www.w3.org/2000/svg">
<path fill-rule="evenodd" clip-rule="evenodd" d="M2.02219 18.1859C1.7075 17.8712 1.68819 17.3803 1.97905 17.0894L16.8752 2.19325C17.1661 1.90238 17.657 1.92169 17.9717 2.23639C18.2864 2.55108 18.3057 3.04198 18.0148 3.33284L3.11865 18.229C2.82778 18.5199 2.33688 18.5006 2.02219 18.1859Z" fill="black"/>
<path d="M5.50687 17.0194C6.80338 17.851 8.34541 18.3333 10.0001 18.3333C14.6025 18.3333 18.3334 14.6023 18.3334 9.99996C18.3334 8.34529 17.8512 6.80326 17.0195 5.50675L15.0997 7.42655C15.098 7.54208 15.1082 7.65822 15.1308 7.7731L15.1522 7.88192C15.2414 8.33631 15.684 8.6308 16.1376 8.53759L16.8977 8.38142C17.0192 8.90125 17.0834 9.4431 17.0834 9.99996C17.0834 13.3824 14.7126 16.2111 11.542 16.915L10.7847 16.0716C10.6047 15.8712 10.339 15.7701 10.0713 15.8003L8.79223 15.9444C8.63028 15.9626 8.47724 16.028 8.35205 16.1323L7.67808 16.6939C7.23569 16.5405 6.81322 16.3444 6.41558 16.1107L5.50687 17.0194Z" fill="black"/>
<path d="M10.7804 11.7458C10.8591 11.9419 10.863 12.1665 10.7777 12.3737L9.97161 14.3311C9.82734 14.6814 10.1876 15.0268 10.5316 14.868L12.1673 14.1126C12.5882 13.9183 12.964 13.6382 13.2705 13.2904L13.9597 12.5084C13.9686 12.4983 13.9786 12.4894 13.9896 12.4817L14.5439 12.0962C14.6625 12.0138 14.7575 11.9019 14.8198 11.7717L15.3937 10.5722C15.5806 10.1815 15.437 9.71268 15.0633 9.49365L13.783 8.74325L10.7804 11.7458Z" fill="black"/>
<path d="M13.04 8.30775L10.1745 11.1732L10.0597 11.0994C9.57061 10.7848 9.32486 10.228 9.38721 9.68135L11.3787 7.68992C11.7219 7.66011 12.0669 7.7374 12.3656 7.91245L13.04 8.30775Z" fill="black"/>
<path d="M15.6374 5.71041L16.5281 4.81969C16.193 4.398 15.8179 4.00952 15.4086 3.65999L14.5215 4.54712C14.9359 4.89118 15.3105 5.28159 15.6374 5.71041Z" fill="black"/>
<path d="M13.7989 4.09114L14.743 3.14708C13.3968 2.21362 11.7623 1.66663 10.0001 1.66663C5.39771 1.66663 1.66675 5.39759 1.66675 9.99996C1.66675 11.7622 2.21374 13.3967 3.1472 14.7429L4.04817 13.8419C3.33232 12.7352 2.91675 11.4161 2.91675 9.99996C2.91675 8.10521 3.6607 6.38421 4.87243 5.11314L5.73198 6.7204C5.99009 7.20305 6.46873 7.5282 7.01253 7.59032L8.14833 7.72006C8.54604 7.76549 8.92684 7.90652 9.25819 8.1311L9.32118 8.17379C9.40118 8.22801 9.46747 8.29535 9.51892 8.37114L10.3288 7.56125L9.53126 7.05302L9.39325 6.92569C8.93086 6.49908 9.08986 5.73355 9.6839 5.52637L9.83275 5.47445L10.6866 5.1754L11.2932 4.96509L13.7989 4.09114Z" fill="black"/>
<path d="M4.54724 14.5213C4.8913 14.9358 5.28171 15.3104 5.71054 15.6372L4.81981 16.528C4.39812 16.1929 4.00964 15.8178 3.66011 15.4085L4.54724 14.5213Z" fill="black"/>
</svg>
