<svg width="20" height="21" viewBox="0 0 20 21" fill="none" xmlns="http://www.w3.org/2000/svg">
<path d="M8.33331 13.8333H4.16665V18M11.6666 7.16667H15.8333V3M3.81915 8.00284C4.28639 6.84638 5.06868 5.8442 6.07711 5.11019C7.08553 4.37618 8.28069 3.9396 9.52477 3.85042C10.7689 3.76125 12.0123 4.02284 13.1151 4.60551C14.2179 5.18819 15.1343 6.06878 15.7617 7.14677M16.1813 12.9976C15.714 14.154 14.9317 15.1562 13.9233 15.8902C12.9149 16.6242 11.721 17.0602 10.4769 17.1494C9.23279 17.2386 7.98837 16.977 6.88556 16.3944C5.78275 15.8117 4.86566 14.9313 4.23826 13.8533" stroke="#606064" stroke-width="2" stroke-linecap="round" stroke-linejoin="round"/>
</svg>
