<svg width="24" height="24" viewBox="0 0 24 24" fill="none" xmlns="http://www.w3.org/2000/svg">
<g clip-path="url(#clip0_384_4120)">
<path d="M1.53586 15.9338C0.754811 15.1527 0.754811 13.8864 1.53586 13.1054L13.1055 1.53574C13.8865 0.754689 15.1529 0.754689 15.9339 1.53574L17.7593 3.36108C16.9641 4.15627 16.9641 5.4455 17.7593 6.24067C18.5545 7.03584 19.8437 7.03585 20.6389 6.2407L22.4642 8.06605C23.2453 8.8471 23.2453 10.1134 22.4642 10.8945L19.3799 13.9789L17.7889 12.3879C17.496 12.095 17.0211 12.095 16.7282 12.3879C16.4353 12.6808 16.4353 13.1556 16.7282 13.4485L18.3192 15.0395L10.8946 22.4641C10.1136 23.2452 8.84722 23.2452 8.06617 22.4641L6.24082 20.6388C7.03601 19.8436 7.03603 18.5543 6.24085 17.7591C5.44567 16.9639 4.15642 16.9639 3.36124 17.7591L1.53586 15.9338ZM10.0212 4.62016L8.9605 5.68082L11.0713 7.79164C11.3642 8.08453 11.8391 8.08453 12.132 7.79164C12.4249 7.49875 12.4249 7.02387 12.132 6.73098L10.0212 4.62016ZM13.1927 8.85236C12.8998 9.14525 12.8998 9.62013 13.1927 9.91302L14.6069 11.3272C14.8998 11.6201 15.3746 11.6201 15.6675 11.3272C15.9604 11.0343 15.9604 10.5595 15.6675 10.2666L14.2533 8.85236C13.9604 8.55947 13.4856 8.55947 13.1927 8.85236Z" fill="black"/>
</g>
<defs>
<clipPath id="clip0_384_4120">
<rect width="24" height="24" fill="white"/>
</clipPath>
</defs>
</svg>
