<svg width="28" height="29" viewBox="0 0 28 29" fill="none" xmlns="http://www.w3.org/2000/svg">
<circle cx="14" cy="14.834" r="14" fill="#17171B" fill-opacity="0.05"/>
<g opacity="0.3">
<path d="M7.70001 10.7733V18.8933C7.70001 19.6774 7.70001 20.0689 7.8526 20.3684C7.98683 20.6318 8.20084 20.8465 8.46427 20.9808C8.76345 21.1332 9.15531 21.1332 9.93785 21.1332H18.0622C18.8447 21.1332 19.236 21.1332 19.5352 20.9808C19.7986 20.8465 20.0133 20.6318 20.1476 20.3684C20.3 20.0692 20.3 19.6779 20.3 18.8954V10.771C20.3 9.9885 20.3 9.59664 20.1476 9.29746C20.0133 9.03403 19.7986 8.82002 19.5352 8.68579C19.2357 8.5332 18.8442 8.5332 18.0601 8.5332H9.94015C9.15608 8.5332 8.76375 8.5332 8.46427 8.68579C8.20084 8.82002 7.98683 9.03403 7.8526 9.29746C7.70001 9.59694 7.70001 9.98927 7.70001 10.7733Z" stroke="#17171B" stroke-width="1.5" stroke-linecap="round" stroke-linejoin="round"/>
<path d="M11.9 12.7338C11.9 13.8936 12.8402 14.8338 14 14.8338C15.1598 14.8338 16.1 13.8936 16.1 12.7338C16.1 11.574 15.1598 10.6338 14 10.6338C12.8402 10.6338 11.9 11.574 11.9 12.7338Z" fill="#17171B"/>
<path d="M14 15.5338C15.2355 15.5338 16.3215 16.174 16.9444 17.1407C17.5426 18.0693 16.6046 19.0338 15.5 19.0338H12.5C11.3954 19.0338 10.4574 18.0693 11.0556 17.1407C11.6785 16.174 12.7645 15.5338 14 15.5338Z" fill="#17171B"/>
</g>
</svg>
