<svg width="20" height="18" viewBox="0 0 20 18" fill="none" xmlns="http://www.w3.org/2000/svg">
<path d="M1.9458 7.61324C1.68476 7.37184 1.82656 6.93543 2.17964 6.89357L7.18262 6.30016C7.32652 6.28309 7.45151 6.19273 7.51221 6.06114L9.6224 1.48632C9.77132 1.16346 10.2303 1.16339 10.3792 1.48626L12.4894 6.06105C12.5501 6.19263 12.6743 6.28324 12.8182 6.3003L17.8215 6.89357C18.1745 6.93543 18.3159 7.37197 18.0549 7.61337L14.3565 11.0342C14.2501 11.1326 14.2027 11.279 14.231 11.4212L15.2125 16.3626C15.2818 16.7113 14.9107 16.9815 14.6004 16.8078L10.2043 14.3464C10.0778 14.2757 9.92422 14.276 9.79777 14.3468L5.4012 16.8072C5.09094 16.9809 4.71912 16.7113 4.78841 16.3625L5.77012 11.4215C5.79836 11.2793 5.75111 11.1325 5.64472 11.0342L1.9458 7.61324Z" fill="#005CFF" stroke="#005CFF" stroke-width="2" stroke-linecap="round" stroke-linejoin="round"/>
</svg>
