<svg width="28" height="28" viewBox="0 0 28 28" fill="none" xmlns="http://www.w3.org/2000/svg">
<path d="M11.6669 5.83366L9.56694 5.83366C8.26015 5.83366 7.60626 5.83366 7.10714 6.08798C6.66809 6.31168 6.3114 6.66838 6.08769 7.10742C5.83337 7.60655 5.83337 8.26043 5.83337 9.56722L5.83338 18.4339C5.83338 19.7407 5.83338 20.3937 6.08769 20.8929C6.3114 21.3319 6.6681 21.6892 7.10714 21.9129C7.60578 22.167 8.25887 22.167 9.5631 22.167L18.437 22.167C19.7412 22.167 20.3934 22.167 20.892 21.9129C21.331 21.6892 21.6889 21.3316 21.9126 20.8925C22.1667 20.3939 22.1667 19.7415 22.1667 18.4373L22.1667 16.3337M23.3334 10.5003L23.3334 4.66699M23.3334 4.66699L17.5 4.66699M23.3334 4.66699L15.1667 12.8337" stroke="#17171B" stroke-width="2.5" stroke-linecap="round" stroke-linejoin="round"/>
</svg>
