<svg width="15" height="16" viewBox="0 0 15 16" fill="none" xmlns="http://www.w3.org/2000/svg">
<path d="M1.25 9.5105V11.8216C1.25 12.8173 1.25 13.3148 1.44463 13.6951C1.61583 14.0296 1.88881 14.3019 2.22482 14.4723C2.60643 14.6659 3.10625 14.6659 4.10441 14.6659L10.8956 14.6659C11.8938 14.6659 12.3928 14.6659 12.7745 14.4723C13.1105 14.3019 13.3844 14.0296 13.5556 13.6951C13.75 13.3152 13.75 12.8183 13.75 11.8246V9.50758C13.75 8.51388 13.75 8.01628 13.5556 7.63637C13.3844 7.30186 13.1105 7.03009 12.7745 6.85965C12.3925 6.66588 11.8931 6.66588 10.893 6.66588H10H4.82143H4.10732C3.10722 6.66588 2.6068 6.66588 2.22482 6.85965C1.88881 7.03009 1.61583 7.30186 1.44463 7.63637C1.25 8.01666 1.25 8.51485 1.25 9.5105Z" fill="#EB2E23"/>
<path d="M4.82143 6.66588H4.10732C3.10722 6.66588 2.6068 6.66588 2.22482 6.85965C1.88881 7.03009 1.61583 7.30186 1.44463 7.63637C1.25 8.01666 1.25 8.51485 1.25 9.5105V11.8216C1.25 12.8173 1.25 13.3148 1.44463 13.6951C1.61583 14.0296 1.88881 14.3019 2.22482 14.4723C2.60643 14.6659 3.10625 14.6659 4.10441 14.6659L10.8956 14.6659C11.8938 14.6659 12.3928 14.6659 12.7745 14.4723C13.1105 14.3019 13.3844 14.0296 13.5556 13.6951C13.75 13.3152 13.75 12.8183 13.75 11.8246V9.50758C13.75 8.51388 13.75 8.01628 13.5556 7.63637C13.3844 7.30186 13.1105 7.03009 12.7745 6.85965C12.3925 6.66588 11.8931 6.66588 10.893 6.66588H10M4.82143 6.66588V4.10599C4.82143 2.57432 5.98216 1.33255 7.414 1.33255C8.276 1.23706 10 1.65807 10 4.10599C10 6.5539 10 6.83255 10 6.66588M4.82143 6.66588H10" stroke="#EB2E23" stroke-width="2" stroke-linecap="round" stroke-linejoin="round"/>
</svg>
