<svg width="18" height="18" viewBox="0 0 18 18" fill="none" xmlns="http://www.w3.org/2000/svg">
<path d="M3.75 6.00098C3.75 7.65783 5.09315 9.00098 6.75 9.00098C8.40685 9.00098 9.75 7.65783 9.75 6.00098C9.75 4.34412 8.40685 3.00098 6.75 3.00098C5.09315 3.00098 3.75 4.34412 3.75 6.00098Z" fill="#17171B"/>
<path d="M15.75 7.50098L12.75 10.501L11.25 9.00098M6.75 9.00098C5.09315 9.00098 3.75 7.65783 3.75 6.00098C3.75 4.34412 5.09315 3.00098 6.75 3.00098C8.40685 3.00098 9.75 4.34412 9.75 6.00098C9.75 7.65783 8.40685 9.00098 6.75 9.00098Z" stroke="#17171B" stroke-width="1.5" stroke-linecap="round" stroke-linejoin="round"/>
<path d="M6.75 11.251C9.23528 11.251 11.25 12.5941 11.25 14.251H2.25C2.25 12.5941 4.26472 11.251 6.75 11.251Z" fill="#17171B" stroke="#17171B" stroke-width="1.5" stroke-linecap="round" stroke-linejoin="round"/>
</svg>
