<svg width="20" height="20" viewBox="0 0 20 20" fill="none" xmlns="http://www.w3.org/2000/svg">
<g clip-path="url(#clip0_23_1537)">
<path d="M10.0009 20.0019C15.5243 20.0019 20.0019 15.5243 20.0019 10.001C20.0019 4.47763 15.5243 6.10352e-05 10.0009 6.10352e-05C4.47758 6.10352e-05 1.14441e-05 4.47763 1.14441e-05 10.001C1.14441e-05 15.5243 4.47758 20.0019 10.0009 20.0019Z" fill="black"/>
<path d="M18.405 9.28052H15.9298V4.06467H14.4889V9.28052H10.7362V7.40512C10.7362 6.94091 10.649 6.50641 10.4744 6.09976C10.2999 5.69311 10.0604 5.34031 9.75398 5.03951C9.4476 4.7387 9.09109 4.50102 8.6863 4.32648C8.27965 4.15194 7.84887 4.06467 7.3958 4.06467C6.94273 4.06467 6.49894 4.15194 6.09787 4.32648C5.69679 4.50102 5.34585 4.7387 5.04504 5.03951C4.74423 5.34031 4.50656 5.69311 4.33201 6.09976C4.15747 6.50641 4.0702 6.94091 4.0702 7.40512V9.28052H1.59504V10.7214H4.0702V15.9373H5.51111V10.7214H9.27863V12.6135C9.27863 13.0778 9.3659 13.5104 9.54045 13.9115C9.71499 14.3126 9.95266 14.6635 10.2535 14.9643C10.5543 15.2651 10.9052 15.5028 11.3063 15.6773C11.7074 15.8519 12.14 15.9391 12.6042 15.9391C13.0684 15.9391 13.4881 15.8519 13.8947 15.6773C14.3014 15.5028 14.6542 15.2651 14.955 14.9643C15.2558 14.6635 15.4935 14.3126 15.668 13.9115C15.8426 13.5104 15.9298 13.0778 15.9298 12.6135V10.7214H18.405V9.28052ZM5.51296 9.28052V7.40512C5.51296 7.14145 5.5631 6.89634 5.66337 6.66981C5.76364 6.44328 5.90104 6.24459 6.07559 6.07562C6.25013 5.90665 6.45067 5.77296 6.6772 5.67269C6.90374 5.57242 7.14512 5.52228 7.39765 5.52228C7.65018 5.52228 7.90643 5.57242 8.13296 5.67269C8.3595 5.77296 8.55818 5.90851 8.72715 6.07562C8.89612 6.24459 9.02981 6.44328 9.13008 6.66981C9.23035 6.89634 9.28049 7.14145 9.28049 7.40512V9.28052H5.51296ZM14.4889 12.6135C14.4889 12.8661 14.4388 13.1093 14.3385 13.3414C14.2382 13.5735 14.1027 13.7741 13.9356 13.943C13.7685 14.112 13.5679 14.2457 13.3414 14.346C13.1149 14.4462 12.8698 14.4964 12.6061 14.4964C12.3424 14.4964 12.1122 14.4462 11.8856 14.346C11.6591 14.2457 11.4604 14.112 11.2914 13.943C11.1225 13.7741 10.9888 13.5772 10.8885 13.3489C10.7882 13.1223 10.7381 12.8772 10.7381 12.6135V10.7214H14.4908V12.6135H14.4889Z" fill="white"/>
<path d="M1.59504 10.7196H4.0702V15.9355H5.51111V10.7196H9.26378V12.595C9.26378 13.0592 9.35105 13.4937 9.52559 13.9004C9.70013 14.307 9.93967 14.6598 10.246 14.9606C10.5524 15.2614 10.9089 15.4991 11.3137 15.6736C11.7204 15.8482 12.1512 15.9355 12.6042 15.9355C13.0573 15.9355 13.5011 15.8482 13.9022 15.6736C14.3032 15.4991 14.6542 15.2614 14.955 14.9606C15.2558 14.6598 15.4935 14.307 15.668 13.9004C15.8426 13.4937 15.9298 13.0592 15.9298 12.595V10.7196H18.405V9.27869H15.9298V4.06283H14.4889V9.27869H10.7214V7.38657C10.7214 6.92236 10.6341 6.48972 10.4596 6.08864C10.285 5.68756 10.0474 5.33662 9.74655 5.03581C9.44575 4.73501 9.0948 4.49733 8.69373 4.32279C8.29265 4.14825 7.86001 4.06097 7.3958 4.06097C6.93159 4.06097 6.51194 4.14825 6.1053 4.32279C5.69865 4.49733 5.34585 4.73501 5.04504 5.03581C4.74423 5.33662 4.50656 5.68756 4.33201 6.08864C4.15747 6.48972 4.0702 6.92236 4.0702 7.38657V9.27869H1.59504V10.7196ZM14.4871 10.7196V12.595C14.4871 12.8587 14.4369 13.1038 14.3367 13.3303C14.2364 13.5568 14.099 13.7555 13.9244 13.9245C13.7499 14.0935 13.5494 14.2272 13.3228 14.3274C13.0963 14.4277 12.8549 14.4778 12.6024 14.4778C12.3498 14.4778 12.0936 14.4277 11.8671 14.3274C11.6405 14.2272 11.4418 14.0916 11.2729 13.9245C11.1039 13.7555 10.9702 13.5568 10.8699 13.3303C10.7697 13.1038 10.7195 12.8587 10.7195 12.595V10.7196H14.4871ZM5.51111 7.38657C5.51111 7.13404 5.56124 6.89079 5.66151 6.65869C5.76178 6.42659 5.89733 6.22605 6.06444 6.05707C6.23156 5.8881 6.4321 5.75441 6.65863 5.65414C6.88517 5.55387 7.13027 5.50374 7.39394 5.50374C7.65761 5.50374 7.88786 5.55387 8.11439 5.65414C8.34093 5.75441 8.53961 5.8881 8.70858 6.05707C8.87755 6.22605 9.01125 6.42287 9.11152 6.65126C9.21179 6.8778 9.26192 7.1229 9.26192 7.38657V9.27869H5.50925V7.38657H5.51111Z" stroke="#DBDBDB" stroke-width="0.5" stroke-linejoin="bevel"/>
</g>
<defs>
<clipPath id="clip0_23_1537">
<rect width="20" height="20" fill="white"/>
</clipPath>
</defs>
</svg>
