<svg width="78" height="26" viewBox="0 0 78 26" fill="none" xmlns="http://www.w3.org/2000/svg">
<g clip-path="url(#clip0_23_1530)">
<path d="M74.9876 0.95965C75.0711 0.764467 75.1863 0.597748 75.3294 0.455427C75.4725 0.313106 75.6394 0.203316 75.8301 0.121989C76.0209 0.0406631 76.2236 0 76.4382 0C76.6528 0 76.8555 0.0406631 77.0423 0.121989C77.233 0.203316 77.396 0.313106 77.539 0.455427C77.6821 0.597748 77.7934 0.764467 77.8768 0.95965C77.9603 1.15483 78 1.36221 78 1.58586C78 1.80951 77.9603 2.02909 77.8768 2.22427C77.7934 2.41946 77.6821 2.59024 77.539 2.73256C77.396 2.87488 77.233 2.98874 77.0423 3.066C76.8515 3.14733 76.6528 3.18392 76.4382 3.18392C76.2236 3.18392 76.0209 3.14326 75.8301 3.066C75.6394 2.98467 75.4725 2.87488 75.3294 2.73256C75.1863 2.59024 75.0711 2.41946 74.9876 2.22427C74.9042 2.02909 74.8644 1.81764 74.8644 1.58586C74.8644 1.35408 74.9042 1.15077 74.9876 0.95965ZM75.246 2.13075C75.3095 2.29747 75.4009 2.43979 75.5162 2.56584C75.6314 2.68783 75.7666 2.78542 75.9255 2.85455C76.0845 2.92368 76.2514 2.96028 76.4382 2.96028C76.625 2.96028 76.7879 2.92368 76.9429 2.85455C77.0979 2.78542 77.233 2.68783 77.3483 2.56584C77.4635 2.44385 77.5549 2.29747 77.6185 2.13075C77.6821 1.96403 77.7179 1.78104 77.7179 1.58586C77.7179 1.39068 77.6861 1.21583 77.6185 1.05317C77.5549 0.886456 77.4635 0.744135 77.3483 0.622146C77.233 0.500156 77.0979 0.406631 76.9429 0.337504C76.7879 0.268377 76.617 0.23178 76.4382 0.23178C76.2594 0.23178 76.0845 0.268377 75.9255 0.337504C75.7666 0.406631 75.6314 0.504223 75.5162 0.622146C75.4009 0.744135 75.3095 0.886456 75.246 1.05317C75.1824 1.21989 75.1466 1.39475 75.1466 1.58586C75.1466 1.77698 75.1784 1.96403 75.246 2.13075ZM76.5137 0.658743C76.7323 0.658743 76.8912 0.703472 76.9946 0.792931C77.0979 0.88239 77.1496 1.01658 77.1496 1.1955C77.1496 1.36221 77.1019 1.48827 77.0105 1.56553C76.9191 1.64279 76.8038 1.69159 76.6687 1.70378L77.1893 2.52925H76.8833L76.3865 1.72818H76.0845V2.52925H75.8023V0.662809H76.5057L76.5137 0.658743ZM76.3905 1.48827C76.4541 1.48827 76.5137 1.48827 76.5733 1.48014C76.6289 1.47607 76.6806 1.46387 76.7243 1.44354C76.768 1.42321 76.8038 1.39475 76.8316 1.35002C76.8594 1.30935 76.8714 1.25242 76.8714 1.17516C76.8714 1.11417 76.8594 1.06131 76.8356 1.02471C76.8118 0.988114 76.78 0.95965 76.7442 0.939318C76.7084 0.918987 76.6647 0.906788 76.613 0.898655C76.5654 0.890522 76.5177 0.886456 76.47 0.886456H76.0964V1.48014H76.3945L76.3905 1.48827Z" fill="#17171B"/>
<path d="M1.52588e-05 26V0.0325317H3.08393V26H1.52588e-05Z" fill="#17171B"/>
<path d="M46.2707 3.18799V0.0325317H28.2242V11.4223V14.5777V26H31.3041H46.2707V22.8445H31.3041V14.5777H42.2091V11.4223H31.3041V3.18799H46.2707Z" fill="#17171B"/>
<path d="M13.4842 0C15.2447 0 16.894 0.34157 18.432 1.02064C19.966 1.70378 21.3132 2.6309 22.4657 3.81013C23.6182 4.98937 24.5283 6.36378 25.1919 7.93744C25.8596 9.5111 26.1934 11.1946 26.1934 13C26.1934 14.8054 25.8596 16.4889 25.1919 18.0626C24.5243 19.6362 23.6182 21.0106 22.4657 22.1899C21.3132 23.3691 19.97 24.3003 18.432 24.9794C16.894 25.6625 15.2487 26 13.4842 26H5.1147V0H13.4842ZM13.4842 22.8445C14.7956 22.8445 16.0356 22.5843 17.2119 22.0638C18.3883 21.5433 19.4017 20.8399 20.2601 19.9493C21.1185 19.0588 21.802 18.0178 22.3107 16.8305C22.8194 15.639 23.0737 14.3622 23.0737 13C23.0737 11.6378 22.8194 10.3894 22.3107 9.1858C21.802 7.98624 21.1185 6.94526 20.2601 6.06694C19.4017 5.18861 18.3843 4.48921 17.2119 3.96872C16.0356 3.44823 14.7956 3.18799 13.4842 3.18799H8.19861V22.8445H13.4842Z" fill="#17171B"/>
<path d="M59.4528 18.7213V7.3153C59.4528 6.73788 59.3455 6.20113 59.1309 5.70504C58.9163 5.20895 58.6262 4.77385 58.2685 4.40382C57.9069 4.03378 57.4816 3.74101 56.9968 3.52143C56.512 3.30185 55.9874 3.19205 55.423 3.19205C54.8587 3.19205 54.3659 3.30185 53.8811 3.52143C53.3962 3.74101 52.967 4.03785 52.5935 4.40382C52.2199 4.77385 51.9258 5.20895 51.7112 5.70504C51.4966 6.20113 51.3893 6.73788 51.3893 7.3153V26H48.3054V7.3153C48.3054 6.29872 48.4922 5.3472 48.8658 4.45668C49.2393 3.56616 49.748 2.79356 50.3918 2.13481C51.0356 1.47607 51.7867 0.955583 52.6451 0.57335C53.5035 0.191117 54.4295 0 55.423 0C56.4166 0 57.3147 0.191117 58.1851 0.57335C59.0554 0.955583 59.8184 1.47607 60.4702 2.13481C61.1259 2.79356 61.6386 3.56616 62.0121 4.45668C62.3857 5.3472 62.5725 6.29872 62.5725 7.3153V18.7213C62.5725 19.2987 62.6798 19.8355 62.8944 20.3316C63.109 20.8277 63.3951 21.2627 63.7568 21.6328C64.1184 22.0028 64.5397 22.2956 65.0285 22.5152C65.5133 22.7348 66.03 22.8445 66.5704 22.8445C67.1109 22.8445 67.6594 22.7348 68.1442 22.5152C68.629 22.2956 69.0543 22.0028 69.4159 21.6328C69.7776 21.2627 70.0637 20.8236 70.2783 20.3153C70.4929 19.807 70.6002 19.2743 70.6002 18.7213V0H73.6841V18.7213C73.6841 19.7379 73.4973 20.6853 73.1238 21.5637C72.7502 22.442 72.2415 23.2105 71.5977 23.8693C70.9539 24.528 70.1988 25.0485 69.3285 25.4307C68.4581 25.8129 67.5362 26.0041 66.5665 26.0041C65.5968 26.0041 64.647 25.8129 63.7886 25.4307C62.9302 25.0485 62.179 24.528 61.5352 23.8693C60.8914 23.2105 60.3827 22.442 60.0092 21.5637C59.6356 20.6853 59.4488 19.7379 59.4488 18.7213H59.4528Z" fill="#17171B"/>
</g>
<defs>
<clipPath id="clip0_23_1530">
<rect width="78" height="26" fill="white"/>
</clipPath>
</defs>
</svg>
