<svg width="22" height="22" viewBox="0 0 22 22" fill="none" xmlns="http://www.w3.org/2000/svg">
<path fill-rule="evenodd" clip-rule="evenodd" d="M10.9982 0.700989C8.20216 0.700989 7.85216 0.713058 6.75387 0.761334C5.65961 0.80961 4.9073 0.986624 4.25557 1.24007C3.57568 1.50559 3.00039 1.8556 2.42912 2.43089C1.85383 3.00216 1.50382 3.57745 1.2383 4.25332C0.984854 4.90907 0.80784 5.65736 0.759564 6.75162C0.711288 7.85393 0.699219 8.20393 0.699219 10.9999C0.699219 13.7959 0.711288 14.1459 0.759564 15.2442C0.80784 16.3385 0.984854 17.0908 1.2383 17.7425C1.50382 18.4224 1.85383 18.9977 2.42912 19.569C3.00039 20.1403 3.57568 20.4943 4.25155 20.7558C4.9073 21.0092 5.65559 21.1862 6.74985 21.2345C7.84814 21.2828 8.19814 21.2949 10.9941 21.2949C13.7901 21.2949 14.1402 21.2828 15.2384 21.2345C16.3327 21.1862 17.085 21.0092 17.7367 20.7558C18.4126 20.4943 18.9879 20.1403 19.5592 19.569C20.1304 18.9977 20.4845 18.4224 20.746 17.7466C20.9994 17.0908 21.1764 16.3425 21.2247 15.2483C21.273 14.15 21.285 13.8 21.285 11.004C21.285 8.20796 21.273 7.85795 21.2247 6.75967C21.1764 5.6654 20.9994 4.9131 20.746 4.26137C20.4925 3.57745 20.1425 3.00216 19.5672 2.43089C18.9959 1.85962 18.4207 1.50559 17.7448 1.2441C17.089 0.990647 16.3407 0.813634 15.2465 0.765357C14.1442 0.713058 13.7942 0.700989 10.9982 0.700989ZM10.9981 5.70958C8.07737 5.70958 5.70781 8.07915 5.70781 10.9999C5.70781 13.9206 8.07737 16.2901 10.9981 16.2901C13.9188 16.2901 16.2884 13.9206 16.2884 10.9999C16.2884 8.07915 13.9188 5.70958 10.9981 5.70958ZM10.9981 14.4315C9.10325 14.4315 7.56645 12.8947 7.56645 10.9999C7.56645 9.10502 9.10325 7.56822 10.9981 7.56822C12.8929 7.56822 14.4297 9.10502 14.4297 10.9999C14.4297 12.8947 12.8929 14.4315 10.9981 14.4315ZM16.4984 6.73539C17.1782 6.73539 17.7334 6.18423 17.7334 5.50032C17.7334 4.82043 17.1782 4.26525 16.4984 4.26525C15.8185 4.26525 15.2633 4.8164 15.2633 5.50032C15.2633 6.18021 15.8144 6.73539 16.4984 6.73539Z" fill="black"/>
</svg>
