<svg width="24" height="24" viewBox="0 0 24 24" fill="none" xmlns="http://www.w3.org/2000/svg">
<path d="M5 8.00079C5 10.2099 6.79086 12.0008 9 12.0008C11.2091 12.0008 13 10.2099 13 8.00079C13 5.79165 11.2091 4.00079 9 4.00079C6.79086 4.00079 5 5.79165 5 8.00079Z" fill="black"/>
<path d="M21 10.0008L17 14.0008L15 12.0008M9 12.0008C6.79086 12.0008 5 10.2099 5 8.00079C5 5.79165 6.79086 4.00079 9 4.00079C11.2091 4.00079 13 5.79165 13 8.00079C13 10.2099 11.2091 12.0008 9 12.0008Z" stroke="black" stroke-width="2" stroke-linecap="round" stroke-linejoin="round"/>
<path d="M9 15.0008C12.3137 15.0008 15 16.7917 15 19.0008H3C3 16.7917 5.68629 15.0008 9 15.0008Z" fill="black" stroke="black" stroke-width="2" stroke-linecap="round" stroke-linejoin="round"/>
</svg>
