<svg width="18" height="17" viewBox="0 0 18 17" fill="none" xmlns="http://www.w3.org/2000/svg">
<path d="M15.4004 15.9203L13.8764 14.7012L13.8652 14.6926C13.5475 14.4384 13.3872 14.3101 13.2083 14.2188C13.0478 14.1368 12.8767 14.0771 12.7002 14.0408C12.5012 14 12.294 14 11.8779 14H3.19691C2.07899 14 1.51938 14 1.09198 13.7822C0.715656 13.5905 0.409519 13.2842 0.217773 12.9079C0 12.4805 0 11.9215 0 10.8036V3.19691C0 2.07899 0 1.5192 0.217773 1.0918C0.409519 0.715473 0.71628 0.409734 1.0926 0.217987C1.52043 0 2.0797 0 3.1998 0H14.7998C15.9199 0 16.4804 0 16.9082 0.217987C17.2845 0.409734 17.5903 0.715473 17.782 1.0918C18 1.51962 18 2.08009 18 3.2002V14.6712C18 15.7369 18 16.2696 17.7815 16.5433C17.5916 16.7813 17.3036 16.9198 16.999 16.9195C16.6488 16.9191 16.2326 16.5861 15.4004 15.9203Z" fill="#005CFF"/>
</svg>
