<svg width="24" height="24" viewBox="0 0 24 24" fill="none" xmlns="http://www.w3.org/2000/svg">
<path d="M18.4004 19.9203L16.8764 18.7012L16.8652 18.6926C16.5475 18.4384 16.3872 18.3101 16.2083 18.2188C16.0478 18.1368 15.8767 18.0771 15.7002 18.0408C15.5012 18 15.294 18 14.8779 18H6.19691C5.07899 18 4.51938 18 4.09198 17.7822C3.71566 17.5905 3.40952 17.2842 3.21777 16.9079C3 16.4805 3 15.9215 3 14.8036V7.19691C3 6.07899 3 5.5192 3.21777 5.0918C3.40952 4.71547 3.71628 4.40973 4.0926 4.21799C4.52043 4 5.0797 4 6.1998 4H17.7998C18.9199 4 19.4804 4 19.9082 4.21799C20.2845 4.40973 20.5903 4.71547 20.782 5.0918C21 5.51962 21 6.08009 21 7.2002V18.6712C21 19.7369 21 20.2696 20.7815 20.5433C20.5916 20.7813 20.3036 20.9198 19.999 20.9195C19.6488 20.9191 19.2326 20.5861 18.4004 19.9203Z" fill="#000000"/>
<path d="M7.49995 11H7.50195V11.002L7.5 11.002L7.49995 11Z" stroke="white" stroke-width="2.5" stroke-linecap="round" stroke-linejoin="round"/>
<path d="M11.998 11H12V11.002L11.998 11.002L11.998 11Z" stroke="white" stroke-width="2.5" stroke-linecap="round" stroke-linejoin="round"/>
<path d="M16.498 11.002L16.5 11V11.002L16.498 11.002Z" stroke="white" stroke-width="2.5" stroke-linecap="round" stroke-linejoin="round"/>
</svg>
