<svg width="19" height="18" viewBox="0 0 19 18" fill="none" xmlns="http://www.w3.org/2000/svg">
<path fill-rule="evenodd" clip-rule="evenodd" d="M1.9982 5.91277C2.43492 2.53487 5.40485 0 8.92579 0H10.5625C14.0834 0 17.0534 2.53487 17.4901 5.91277L18.7258 15.4709C18.8995 16.8138 17.8164 18 16.4166 18C15.9447 18 15.5773 17.6032 15.3973 17.1669C15.0548 16.3367 14.2157 15.75 13.2349 15.75C12.3669 15.75 11.61 16.2094 11.2099 16.8904C10.8844 17.4445 10.3868 18 9.74414 18C9.10151 18 8.60386 17.4445 8.27836 16.8904C7.8783 16.2094 7.12133 15.75 6.25339 15.75C5.27255 15.75 4.43344 16.3367 4.09097 17.1669C3.91099 17.6032 3.54362 18 3.07165 18C1.67186 18 0.588832 16.8138 0.762454 15.4709L1.9982 5.91277ZM14.7441 8C14.7441 9.10457 13.8487 10 12.7441 10C11.6396 10 10.7441 9.10457 10.7441 8C10.7441 6.89543 11.6396 6 12.7441 6C13.8487 6 14.7441 6.89543 14.7441 8ZM6.74414 10C7.84871 10 8.74414 9.10457 8.74414 8C8.74414 6.89543 7.84871 6 6.74414 6C5.63957 6 4.74414 6.89543 4.74414 8C4.74414 9.10457 5.63957 10 6.74414 10Z" fill="#000000"/>
</svg>
