<svg width="25" height="24" viewBox="0 0 25 24" fill="none" xmlns="http://www.w3.org/2000/svg">
<path d="M5 13.8135V16.5869C5 17.7817 5 18.3787 5.23356 18.8351C5.439 19.2365 5.76658 19.5632 6.16978 19.7677C6.62772 20 7.22751 20 8.4253 20L16.5747 20C17.7725 20 18.3714 20 18.8294 19.7677C19.2326 19.5632 19.5612 19.2365 19.7667 18.8351C20 18.3792 20 17.7829 20 16.5905V13.81C20 12.6176 20 12.0205 19.7667 11.5646C19.5612 11.1632 19.2326 10.837 18.8294 10.6325C18.371 10.4 17.7717 10.4 16.5716 10.4H9.28571H8.42878C7.22867 10.4 6.62816 10.4 6.16978 10.6325C5.76658 10.837 5.439 11.1632 5.23356 11.5646C5 12.0209 5 12.6188 5 13.8135Z" fill="white"/>
<path d="M9.28571 10.4H8.42878C7.22867 10.4 6.62816 10.4 6.16978 10.6325C5.76658 10.837 5.439 11.1632 5.23356 11.5646C5 12.0209 5 12.6188 5 13.8135V16.5869C5 17.7817 5 18.3787 5.23356 18.8351C5.439 19.2365 5.76658 19.5632 6.16978 19.7677C6.62772 20 7.22751 20 8.4253 20L16.5747 20C17.7725 20 18.3714 20 18.8294 19.7677C19.2326 19.5632 19.5612 19.2365 19.7667 18.8351C20 18.3792 20 17.7829 20 16.5905V13.81C20 12.6176 20 12.0205 19.7667 11.5646C19.5612 11.1632 19.2326 10.837 18.8294 10.6325C18.371 10.4 17.7717 10.4 16.5716 10.4H9.28571ZM9.28571 10.4V7.32812C9.28571 5.49012 10.6786 4 12.3968 4C13.2796 4 14.0758 4.39337 14.6421 5.02521" stroke="white" stroke-width="2" stroke-linecap="round" stroke-linejoin="round"/>
</svg>
