<svg width="22" height="22" viewBox="0 0 22 22" fill="none" xmlns="http://www.w3.org/2000/svg">
<path fill-rule="evenodd" clip-rule="evenodd" d="M11.8276 1.39063C11.2847 1.22978 10.7063 1.22978 10.1635 1.39063C9.81264 1.49459 9.51452 1.6752 9.22142 1.89479C8.94188 2.10421 8.62416 2.38277 8.2458 2.71449L8.22328 2.73423L8.22261 2.73482L3.10241 7.22373L3.04541 7.27367L3.04541 7.27367C2.67434 7.59867 2.38469 7.85236 2.17059 8.16836C1.98379 8.44408 1.84388 8.75042 1.7591 9.07548C1.66324 9.44305 1.66348 9.82734 1.66379 10.3155L1.66383 10.4004L1.66383 16.3558C1.66382 16.8307 1.66381 17.2271 1.68598 17.5526C1.70905 17.8914 1.7588 18.2114 1.88708 18.5217C2.18452 19.2412 2.75489 19.8141 3.47405 20.1126C3.78375 20.2411 4.10319 20.2909 4.44137 20.314C4.76624 20.3363 5.16196 20.3362 5.63597 20.3362H5.63605H7.79618C8.23793 20.3362 8.59605 19.9774 8.59605 19.5348V14.9793C8.59605 14.1457 9.50724 12.9893 10.9957 12.9893C12.4841 12.9893 13.3953 14.1457 13.3953 14.9793V19.5348C13.3953 19.9774 13.7534 20.3362 14.1951 20.3362H16.3547H16.3548C16.8288 20.3362 17.2246 20.3363 17.5496 20.314C17.8878 20.2909 18.2075 20.2411 18.5172 20.1126C19.2365 19.8141 19.8067 19.2411 20.1041 18.5217C20.2323 18.2115 20.2821 17.8915 20.3052 17.5527C20.3275 17.2268 20.3275 16.8298 20.3275 16.3541V10.4004L20.3275 10.3224V10.3224C20.3277 9.82992 20.3279 9.44454 20.2317 9.07548C20.1473 8.75195 20.0087 8.4454 19.821 8.16836C19.607 7.8525 19.3174 7.59885 18.9467 7.27417L18.9466 7.27416L18.8891 7.22373L13.7487 2.71716C13.3691 2.38436 13.0506 2.10506 12.7703 1.89514C12.4769 1.67534 12.1786 1.49463 11.8276 1.39063Z" stroke="#17171B" stroke-width="2" stroke-linecap="round" stroke-linejoin="round"/>
</svg>
