<svg width="28" height="28" viewBox="0 0 28 28" fill="none" xmlns="http://www.w3.org/2000/svg">
<circle cx="14" cy="14" r="14" fill="#F8F8FA"/>
<path d="M19.2166 21.3323C17.9349 19.9008 16.0727 19 14 19C11.9273 19 10.0649 19.9008 8.7832 21.3323M14 23C9.02944 23 5 18.9706 5 14C5 9.02944 9.02944 5 14 5C18.9706 5 23 9.02944 23 14C23 18.9706 18.9706 23 14 23ZM14 16C12.3431 16 11 14.6569 11 13C11 11.3431 12.3431 10 14 10C15.6569 10 17 11.3431 17 13C17 14.6569 15.6569 16 14 16Z" stroke="#D5D5DA" stroke-width="2" stroke-linecap="round" stroke-linejoin="round"/>
</svg>
