<svg width="24" height="24" viewBox="0 0 24 24" fill="none" xmlns="http://www.w3.org/2000/svg">
<path d="M10.0224 19.3588L9.2136 20.0328C5.88773 18.8793 3.5 15.7185 3.5 12C3.5 9.7263 4.39274 7.6611 5.84682 6.13582L6.87827 8.06453C7.18801 8.64371 7.76238 9.03389 8.41493 9.10843L9.7779 9.26412C10.2551 9.31864 10.7121 9.48787 11.1097 9.75737L11.1853 9.8086C11.5645 10.0656 11.6871 10.5682 11.4688 10.9709C11.0243 11.7909 11.2871 12.8148 12.0715 13.3193L12.5494 13.6267C12.9555 13.8879 13.117 14.402 12.9331 14.8485L11.9658 17.1973C11.7927 17.6177 12.225 18.0322 12.6378 17.8416L14.6006 16.9352C15.1058 16.702 15.5567 16.3659 15.9245 15.9485L16.7516 15.0101C16.7622 14.998 16.7742 14.9873 16.7874 14.9781L17.4526 14.5155C17.5948 14.4166 17.7089 14.2824 17.7837 14.1261L18.4723 12.6867C18.6966 12.2178 18.5243 11.6553 18.0759 11.3924L14.8386 9.49499C14.4455 9.26457 13.9854 9.17531 13.5347 9.24198L13.0083 9.31982C12.8893 9.33742 12.7679 9.31152 12.6665 9.24686L11.4374 8.46367L11.2718 8.31088C10.7169 7.79894 10.9077 6.88031 11.6206 6.63169L11.7992 6.56939L12.8238 6.21053L13.5517 5.95816L16.644 4.87962C17.5231 5.45416 18.2893 6.18711 18.9021 7.03793L18.3812 7.95289C18.1441 8.36948 18.0645 8.85739 18.1568 9.32777L18.1825 9.45835C18.2896 10.0036 18.8207 10.357 19.365 10.2452L20.2771 10.0577C20.4229 10.6815 20.5 11.3318 20.5 12C20.5 16.0589 17.655 19.4534 13.8503 20.298L12.9415 19.2859C12.7256 19.0455 12.4067 18.9242 12.0855 18.9604L10.5506 19.1333C10.3562 19.1552 10.1726 19.2336 10.0224 19.3588ZM12 22C17.5228 22 22 17.5228 22 12C22 6.47715 17.5228 2 12 2C6.47715 2 2 6.47715 2 12C2 17.5228 6.47715 22 12 22Z" fill="black"/>
</svg>
