<svg width="22" height="22" viewBox="0 0 22 22" fill="none" xmlns="http://www.w3.org/2000/svg">
<path d="M1.66667 6.33332V16.6C1.66667 17.9068 1.66667 18.5597 1.92099 19.0588C2.14469 19.4979 2.50139 19.8555 2.94043 20.0793C3.43907 20.3333 4.09216 20.3333 5.3964 20.3333H16.6036C17.9078 20.3333 18.56 20.3333 19.0586 20.0793C19.4977 19.8555 19.8556 19.4979 20.0793 19.0588C20.3333 18.5602 20.3333 17.9078 20.3333 16.6036V6.33332M1.66667 6.33332H20.3333M1.66667 6.33332L3.25938 3.54603C3.65024 2.86202 3.84563 2.52008 4.12046 2.27107C4.36382 2.05057 4.65169 1.88372 4.96387 1.78182C5.31671 1.66666 5.7106 1.66666 6.49968 1.66666H15.4999C16.289 1.66666 16.6843 1.66666 17.0372 1.78182C17.3494 1.88372 17.6359 2.05057 17.8792 2.27107C18.1543 2.52028 18.3502 2.86257 18.7417 3.54768L20.3333 6.33332" stroke="#17171B" stroke-width="2" stroke-linecap="round" stroke-linejoin="round"/>
</svg>
