<svg width="24" height="24" viewBox="0 0 24 24" fill="none" xmlns="http://www.w3.org/2000/svg">
<path d="M17 20C17 18.3431 14.7614 17 12 17C9.23858 17 7 18.3431 7 20M3 17.0004C3 15.7702 4.2341 14.7129 6 14.25M6 10.2361C5.38625 9.68679 5 8.8885 5 8C5 6.34315 6.34315 5 8 5C8.76835 5 9.46924 5.28885 10 5.76389M12 14C10.3431 14 9 12.6569 9 11C9 9.34315 10.3431 8 12 8C13.6569 8 15 9.34315 15 11C15 12.6569 13.6569 14 12 14Z" stroke="black" stroke-width="2.2" stroke-linecap="round" stroke-linejoin="round"/>
<path d="M19.2 16.8V14.4M19.2 14.4V12M19.2 14.4H16.8M19.2 14.4H21.6" stroke="black" stroke-width="2.2" stroke-linecap="round" stroke-linejoin="round"/>
</svg>
